HIERARCHY
ROOT Hips
{
	OFFSET 0.00000 0.00000 0.00000
	CHANNELS 6 Xposition Yposition Zposition Yrotation Zrotation Xrotation 
	JOINT Lumbar
	{
		OFFSET 0 0 0
		CHANNELS 3 Zrotation Xrotation Yrotation
		JOINT Neck
		{
			OFFSET 0.00 0.2701 0.00
			CHANNELS 3 Zrotation Xrotation Yrotation
			End Site
			{
				OFFSET 0.00 0.1379 0.00
			}
		}
		JOINT RightShoulder
		{
			OFFSET 0.0119 0.2289 0.1181
			CHANNELS 3 Zrotation Xrotation Yrotation
			JOINT RightElbow
			{
				OFFSET 0.00 -0.1475 0.00
				CHANNELS 2 Zrotation Yrotation
				JOINT RightWrist
				{
					OFFSET 0.00 -0.1605 0.00
					CHANNELS 2 Zrotation Xrotation
					End Site
					{
						OFFSET 0.0040 -0.1068 0.0006
					}
				}
			}
		}
		JOINT LeftShoulder
		{
			OFFSET 0.0119 0.2289 -0.1181
			CHANNELS 3 Zrotation Xrotation Yrotation
			JOINT LeftElbow
			{
				OFFSET 0.00 -0.1475 0.00
				CHANNELS 2 Zrotation Yrotation
				JOINT LeftWrist
				{
					OFFSET 0.00 -0.1605 0.00
					CHANNELS 2 Zrotation Xrotation
					End Site
					{
						OFFSET 0.0040 -0.1068 -0.0006
					}
				}
			}
		}
	}
	JOINT RightHip
	{
		OFFSET 0.0316 -0.0424 0.0458
		CHANNELS 3 Zrotation Xrotation Yrotation
		JOINT RightKnee
		{
			OFFSET 0.00 -0.2438 0.00
			CHANNELS 1 Zrotation
			JOINT RightAnkle
			{
				OFFSET 0.00 -0.2449 0.00
				CHANNELS 3 Zrotation Xrotation Yrotation
				End Site
				{
					OFFSET 0.1237 -0.0542 0.0051
				}
			}
		}
	}
	JOINT LeftHip
	{
		OFFSET 0.0316 -0.0424 -0.0458
		CHANNELS 3 Zrotation Xrotation Yrotation
		JOINT LeftKnee
		{
			OFFSET 0.00 -0.2438 0.00
			CHANNELS 1 Zrotation
			JOINT LeftAnkle
			{
				OFFSET 0.00 -0.2449 0.00
				CHANNELS 3 Zrotation Xrotation Yrotation
				End Site
				{
					OFFSET 0.1237 -0.0542 -0.0051
				}
			}
		}
	}
}
MOTION
Frames: 30
Frame Time: 0.02
0.28912 -0.17139 -0.04777 144.85004 0.75323 -6.5757 22.09347 -6.036 35.30063 -11.78975 25.50901 -2.11994 3.80484 16.21296 55.62966 51.86977 96.12963 24.7344 0.30962 -51.42781 2.16108 53.70278 79.82154 -51.1748 -27.03331 -2.27354 52.67179 10.29922 -25.58945 -15.79382 -19.16791 0.61418 -2.44083 72.30568 6.60814 17.95831 -44.23938 -16.04855 1.35882 3.33073
0.28927 -0.17162 -0.04719 145.19612 1.03623 -6.3965 21.57148 -6.05813 35.28282 -12.00745 25.44303 -2.11994 4.78433 16.19574 55.58197 52.03903 95.98733 24.97001 0.21917 -51.94821 2.53709 52.76624 79.65889 -52.09651 -25.69379 -2.33763 52.7907 9.82498 -24.54884 -16.66524 -19.05888 0.5626 -2.4612 72.60234 6.37341 18.17342 -43.89265 -16.16832 1.19908 3.25302
0.28945 -0.17192 -0.04651 145.5532 1.35971 -6.18323 20.99294 -6.07468 35.243 -12.23035 25.35828 -2.11994 5.96324 16.17323 55.52218 52.28154 95.77576 25.2956 0.11444 -52.6183 2.92481 51.72006 79.50172 -53.18802 -24.02706 -2.43518 52.9617 9.28463 -23.50572 -17.72019 -18.946 0.50043 -2.48652 72.90448 6.19362 18.4718 -43.26348 -16.44671 1.0421 3.18459
0.28961 -0.1722 -0.04587 145.90998 1.66344 -5.9864 20.44298 -6.09232 35.19692 -12.46371 25.27808 -2.11994 7.06809 16.15498 55.47143 52.49005 95.53461 25.57292 0.00515 -53.24497 3.29864 50.71866 79.35706 -53.98912 -22.54947 -2.56305 53.10491 8.77261 -22.47554 -18.68094 -18.83497 0.44352 -2.50951 73.20925 5.99266 18.70574 -42.7726 -16.64301 0.89096 3.11526
0.28978 -0.17245 -0.04523 146.24819 1.97486 -5.78379 19.87699 -6.11727 35.22397 -12.64227 25.21854 -2.11994 8.11457 16.13214 55.40669 52.69007 95.56381 25.89023 -0.05466 -53.77622 3.7191 49.72149 79.15302 -55.60343 -20.92754 -2.51399 53.26319 8.26557 -21.38938 -19.68723 -18.72359 0.38457 -2.53294 73.49547 5.76986 19.04812 -42.24003 -16.87787 0.70868 3.03115
0.28994 -0.17278 -0.04457 146.6285 2.27853 -5.58679 19.33368 -6.12427 35.08751 -12.93791 25.10573 -2.11994 9.31831 16.11353 55.367 52.93896 94.99676 26.13375 -0.22524 -54.53241 4.03418 48.70664 79.06778 -55.67396 -19.49236 -2.8227 53.40478 7.73336 -20.42006 -20.64416 -18.61121 0.32747 -2.55653 73.8202 5.60985 19.18766 -41.73116 -17.07177 0.59225 2.98026
0.29006 -0.17333 -0.04389 147.10672 2.55781 -5.40168 18.85231 -6.09446 34.55687 -13.53774 24.90325 -2.11994 10.99422 16.13604 55.4076 53.19378 92.97666 26.24768 -0.65592 -55.94943 4.14309 47.53797 79.36665 -50.46882 -18.9824 -4.2728 53.47018 7.14741 -19.7932 -21.39755 -18.50653 0.27756 -2.58012 74.25312 5.58409 18.72253 -41.30773 -17.11048 0.6585 3.01979
0.29016 -0.17397 -0.04318 147.62962 2.82621 -5.22586 18.39916 -6.04453 33.8527 -14.25827 24.63802 -2.11994 12.80291 16.15314 55.47064 53.51925 90.34738 26.26076 -1.20362 -57.57372 4.12967 46.37985 79.77425 -43.86513 -18.61632 -6.05361 53.52067 6.53881 -19.28173 -22.09948 -18.39922 0.23013 -2.60346 74.72364 5.62436 18.05358 -40.92677 -17.10363 0.79074 3.09234
0.29026 -0.17458 -0.04248 148.14173 3.09517 -5.05355 17.94251 -5.99646 33.19407 -14.93526 24.36711 -2.11994 14.496 16.16005 55.52022 53.88129 87.85443 26.26427 -1.72755 -59.05223 4.11331 45.305 80.09474 -38.56436 -17.96156 -7.57433 53.58903 5.94119 -18.70573 -22.83847 -18.28711 0.1817 -2.62653 75.17441 5.65243 17.49612 -40.5574 -17.12023 0.8921 3.14933
0.29038 -0.17517 -0.04181 148.61343 3.38498 -4.84685 17.44294 -5.97937 32.67568 -15.56525 24.24021 -2.11994 16.43748 16.23897 55.59006 53.94295 85.86496 26.52806 -2.13494 -60.75165 4.341 43.85755 80.57496 -30.53555 -18.2147 -9.55131 53.61095 5.33836 -18.17979 -23.52342 -18.20056 0.13173 -2.65178 75.63651 5.60941 16.86845 -40.04629 -17.13058 0.9977 3.20918
0.29046 -0.1758 -0.04106 149.18061 3.62708 -4.71513 17.04216 -5.89251 31.82384 -16.32102 23.7983 -2.11994 17.88041 16.14315 55.6145 54.66233 82.79256 26.19543 -2.80373 -62.04087 4.03557 43.18622 80.74773 -27.74987 -16.64452 -10.66667 53.72714 4.74184 -17.578 -24.30975 -18.05968 0.08653 -2.6719 76.08405 5.72662 16.32931 -39.84613 -17.14123 1.1096 3.27055
0.29047 -0.17651 -0.0401 149.99312 3.74962 -4.78232 16.89139 -5.62256 30.0974 -17.40067 22.50584 -2.11994 17.99302 15.77214 55.5764 57.03507 75.91252 24.50086 -4.24231 -62.12278 2.25061 44.69021 80.04831 -40.69148 -9.74935 -9.22978 54.09206 4.16918 -16.73016 -25.35778 -17.77419 0.04676 -2.68177 76.48042 6.29468 16.15601 -40.47866 -17.16184 1.22727 3.33005
0.29043 -0.17724 -0.03907 150.90151 3.8224 -4.92583 16.84259 -5.28238 28.04104 -18.6016 20.89834 -2.11994 17.57939 15.19044 55.47485 60.08921 68.12459 22.16867 -5.92543 -61.78842 -0.05895 46.96892 79.03458 -58.79264 -1.06045 -6.9312 54.55478 3.60405 -15.80333 -26.5141 -17.43342 0.01308 -2.68574 76.86102 7.01702 16.06592 -41.42696 -17.18389 1.34813 3.38952
0.2904 -0.17795 -0.03806 151.77077 3.91165 -5.03851 16.75743 -4.97118 26.13308 -19.74295 19.43204 -2.11994 17.35928 14.56576 55.36308 62.93272 61.4116 19.94684 -7.44641 -61.65954 -2.10497 48.87076 78.16312 -73.92977 6.63449 -5.08759 54.9827 3.03495 -14.91855 -27.64051 -17.11464 -0.01864 -2.68983 77.25014 7.65214 15.88939 -42.2423 -17.20585 1.46458 3.44764
0.29045 -0.17871 -0.03708 152.62276 4.02699 -5.13556 16.62992 -4.67115 24.22447 -20.90724 17.97007 -2.11994 17.35378 14.51249 55.43462 65.38076 51.96254 18.44536 -9.18727 -61.46912 -4.26468 50.87779 77.29989 -91.61249 15.06689 -2.98874 55.37019 2.46643 -14.01298 -28.68511 -16.80827 -0.07018 -2.70467 77.63537 8.36114 15.90771 -43.01446 -17.22405 1.59592 3.51269
0.29032 -0.17936 -0.03603 153.53302 4.07569 -5.28277 16.61592 -4.33211 22.24248 -22.0511 16.42735 -2.11994 16.75302 13.23681 55.08687 68.78814 47.90238 15.33555 -10.52614 -61.30536 -6.30639 52.84929 76.34095 -105.26171 22.40681 -1.21167 55.86431 1.89993 -13.12898 -29.9248 -16.46388 -0.0791 -2.69581 78.02384 8.9529 15.5468 -43.95098 -17.25087 1.69607 3.56282
0.2897 -0.17967 -0.03478 154.57984 3.9578 -5.55325 16.87804 -3.89702 20.12831 -23.1068 14.72005 -2.11994 14.82063 8.49361 53.78436 74.89125 59.84239 7.57842 -10.70095 -61.31493 -7.92878 54.53533 75.21619 -106.29874 26.15112 -0.54036 56.63725 1.32781 -12.33548 -31.69069 -16.02036 0.02868 -2.62214 78.4296 9.17482 14.08343 -45.2641 -17.30229 1.70953 3.572
0.28889 -0.17986 -0.03348 155.68206 3.77365 -5.8708 17.25289 -3.42633 17.95491 -24.13715 12.94666 -2.11994 12.27312 2.56088 52.02627 81.89369 77.08195 -1.707 -10.4625 -61.36477 -9.40689 56.15803 74.00209 -103.1446 28.75739 -0.21999 57.51246 0.75954 -11.56332 -33.64649 -15.54205 0.17892 -2.52501 78.83769 9.2744 12.24357 -46.73081 -17.36232 1.69118 3.56599
0.28816 -0.18011 -0.03222 156.75906 3.61645 -6.16464 17.58426 -2.97551 15.81565 -25.18033 11.21548 -2.11994 9.8854 -2.74139 50.35451 88.34711 91.29791 -10.05491 -10.40702 -61.39685 -10.92792 57.80868 72.81334 -102.05585 31.98166 0.26725 58.33569 0.19546 -10.77368 -35.50684 -15.08458 0.30952 -2.43905 79.24211 9.43541 10.59934 -48.12796 -17.4179 1.68684 3.56658
0.28748 -0.18035 -0.03088 157.83901 3.47084 -6.47136 17.88708 -2.5062 13.63241 -26.22384 9.41984 -2.11994 7.98207 -8.45738 49.19294 95.42654 108.04046 -19.45158 -10.37472 -61.41333 -12.56414 59.4914 71.67524 -100.46964 34.85724 0.75418 59.18626 -0.39435 -10.01572 -37.41092 -14.60348 0.44223 -2.35052 79.65879 9.57818 8.8522 -49.53821 -17.47585 1.68432 3.56836
0.28665 -0.18057 -0.02969 158.92548 3.28606 -6.76089 18.27409 -2.06842 11.53336 -27.2571 7.74941 -2.11994 4.93427 -13.55762 46.85792 101.39446 120.83927 -27.01763 -10.20017 -61.47593 -13.91782 61.0803 70.41809 -98.85495 38.14741 1.14594 60.00202 -0.92861 -9.19598 -39.26588 -14.16463 0.57999 -2.26214 80.04849 9.72667 7.2316 -50.94967 -17.53083 1.67067 3.56418
0.28547 -0.18074 -0.02895 160.0094 3.00925 -6.9952 18.87154 -1.72214 9.66374 -28.28416 6.4214 -2.11994 -1.14545 -16.95613 41.42495 104.16751 121.04251 -29.17166 -9.67029 -61.66928 -14.53645 62.4345 68.82684 -98.17849 43.00125 1.36837 60.70381 -1.32059 -8.21802 -40.95327 -13.84625 0.72588 -2.1775 80.38142 9.93053 6.03108 -52.35727 -17.57566 1.63164 3.54598
0.28414 -0.18089 -0.02838 161.09879 2.69566 -7.20926 19.54822 -1.41013 7.8861 -29.2981 5.2273 -2.11994 -8.34289 -19.64023 34.82335 105.7652 117.1763 -29.4345 -9.02288 -61.9073 -14.87111 63.68845 67.12708 -97.59112 48.27236 1.50173 61.36517 -1.6552 -7.17519 -42.58162 -13.57257 0.87428 -2.09439 80.68335 10.14188 4.9754 -53.75266 -17.6169 1.58297 3.52255
0.28288 -0.18106 -0.02773 162.1898 2.39914 -7.43 20.18458 -1.08536 6.07925 -30.30711 3.98578 -2.11994 -15.01918 -22.45858 28.73425 107.84147 115.44426 -30.53585 -8.46883 -62.11819 -15.3268 64.98168 65.49448 -96.94609 53.25645 1.66613 62.0399 -2.00912 -6.14975 -44.22665 -13.28201 1.01881 -2.01205 80.98811 10.34254 3.86599 -55.1332 -17.66008 1.54022 3.50232
0.28164 -0.18121 -0.02707 163.26552 2.0985 -7.66396 20.84343 -0.74668 4.21597 -31.36164 2.68339 -2.11994 -21.79789 -26.1165 22.69934 110.20315 112.68864 -31.73735 -7.72885 -62.35885 -15.81215 66.30982 63.77687 -96.24159 58.62968 1.85732 62.73956 -2.39038 -5.17225 -45.92036 -12.97643 1.1773 -1.92227 81.34229 10.56936 2.68885 -56.60892 -17.70347 1.4897 3.47805
0.28031 -0.18138 -0.02647 164.3736 1.79895 -7.86385 21.47239 -0.4465 2.49412 -32.31813 1.54252 -2.11994 -28.58937 -27.84804 16.29051 111.65565 111.03667 -32.31386 -7.35738 -62.5479 -16.1695 67.52947 62.21973 -95.72231 63.28535 1.97774 63.37617 -2.70244 -4.08399 -47.49727 -12.71231 1.30556 -1.84921 81.5839 10.74561 1.69657 -57.87706 -17.74395 1.45371 3.4612
0.27872 -0.18166 -0.026 165.5689 1.50881 -7.98365 22.00137 -0.23683 1.13161 -33.01021 0.7992 -2.11994 -35.40811 -24.36693 9.05469 111.08279 113.33381 -31.15016 -7.99884 -62.58129 -16.24622 68.5771 61.06767 -95.81685 66.02744 1.91117 63.84939 -2.82555 -2.66647 -48.7546 -12.56011 1.35949 -1.81746 81.5412 10.77559 1.14202 -58.6107 -17.79026 1.45819 3.46574
0.27703 -0.18196 -0.02557 166.79583 1.22204 -8.06788 22.49617 -0.06629 -0.08911 -33.60327 0.21751 -2.11994 -42.14928 -18.98178 1.50599 109.59482 116.86602 -29.49259 -9.02153 -62.56126 -16.20299 69.4969 60.09526 -96.08789 68.00044 1.78133 64.25992 -2.88284 -1.14817 -49.89713 -12.44709 1.38077 -1.80352 81.38271 10.75584 0.77683 -59.12809 -17.83148 1.47811 3.47806
0.27539 -0.18224 -0.02512 168.00931 0.93556 -8.16229 23.00525 0.11713 -1.36961 -34.24017 -0.42802 -2.11994 -48.74758 -14.5027 -5.85177 108.39051 119.87681 -28.38078 -9.89618 -62.5672 -16.2144 70.41186 59.081 -96.2226 70.22762 1.69003 64.69803 -2.97857 0.29987 -51.09936 -12.31032 1.41048 -1.78439 81.26481 10.76263 0.35193 -59.72058 -17.86621 1.49246 3.48717
0.27375 -0.18254 -0.0247 169.22166 0.63934 -8.28149 23.52412 0.32007 -2.66943 -34.88289 -1.11116 -2.11994 -56.13368 -9.81374 -13.48016 107.70056 122.60973 -25.89452 -10.66816 -62.56831 -16.21929 71.60175 57.88712 -96.61184 72.89704 1.55121 65.13849 -3.03787 1.85843 -52.26977 -12.1986 1.46775 -1.75273 81.19673 10.75316 -0.17725 -60.41169 -17.9372 1.50047 3.49476
